<?xml version="1.0" standalone="no"?>
<!DOCTYPE svg PUBLIC "-//W3C//DTD SVG 20010904//EN"
 "http://www.w3.org/TR/2001/REC-SVG-20010904/DTD/svg10.dtd">
<svg version="1.0" xmlns="http://www.w3.org/2000/svg"
 width="200.000000pt" height="200.000000pt" viewBox="0 0 200.000000 200.000000"
 preserveAspectRatio="xMidYMid meet">
<metadata>
Created by potrace 1.11, written by Peter Selinger 2001-2013
</metadata>
<g transform="translate(0.000000,200.000000) scale(0.100000,-0.100000)"
fill="#000000" stroke="none">
<path d="M517 1993 c-15 -14 -6 -30 17 -30 15 0 26 6 29 18 4 14 0 19 -17 19
-13 0 -26 -3 -29 -7z"/>
<path d="M815 1990 c-3 -5 -1 -10 4 -10 6 0 11 5 11 10 0 6 -2 10 -4 10 -3 0
-8 -4 -11 -10z"/>
<path d="M840 1985 c0 -8 7 -15 16 -15 14 0 14 3 4 15 -7 8 -14 15 -16 15 -2
0 -4 -7 -4 -15z"/>
<path d="M1310 1989 c0 -5 5 -7 10 -4 6 3 10 8 10 11 0 2 -4 4 -10 4 -5 0 -10
-5 -10 -11z"/>
<path d="M1742 1987 c-9 -10 -9 -18 1 -31 13 -17 14 -17 31 0 14 14 19 15 26
4 4 -7 15 -10 24 -7 23 9 20 26 -4 20 -15 -4 -20 0 -20 13 0 17 -1 17 -14 -1
-12 -17 -14 -17 -23 -1 -8 15 -11 15 -21 3z"/>
<path d="M1400 1981 c0 -8 -8 -20 -17 -27 -10 -7 -16 -15 -13 -17 3 -3 15 2
27 11 17 13 20 21 13 32 -8 12 -10 12 -10 1z"/>
<path d="M1704 1965 c1 -28 11 -33 19 -11 3 8 0 20 -8 26 -10 8 -13 5 -11 -15z"/>
<path d="M1350 1959 c0 -5 5 -7 10 -4 6 3 10 8 10 11 0 2 -4 4 -10 4 -5 0 -10
-5 -10 -11z"/>
<path d="M0 1951 c0 -5 5 -13 10 -16 5 -3 10 -2 10 4 0 5 -4 13 -10 16 -5 3
-10 2 -10 -4z"/>
<path d="M186 1932 c-4 -7 -5 -12 -2 -12 2 0 11 -3 20 -6 9 -3 16 -1 16 6 0 6
-4 9 -9 6 -5 -4 -11 -1 -13 6 -3 9 -6 9 -12 0z"/>
<path d="M361 1917 c-13 -21 -12 -21 5 -5 10 10 16 20 13 22 -3 3 -11 -5 -18
-17z"/>
<path d="M395 1930 c3 -5 8 -10 11 -10 2 0 4 5 4 10 0 6 -5 10 -11 10 -5 0 -7
-4 -4 -10z"/>
<path d="M660 1930 c0 -5 5 -10 11 -10 5 0 7 5 4 10 -3 6 -8 10 -11 10 -2 0
-4 -4 -4 -10z"/>
<path d="M1400 1929 c0 -5 5 -7 10 -4 6 3 10 8 10 11 0 2 -4 4 -10 4 -5 0 -10
-5 -10 -11z"/>
<path d="M250 1920 c-9 -6 -10 -10 -3 -10 6 0 15 5 18 10 8 12 4 12 -15 0z"/>
<path d="M1670 1911 c0 -6 4 -13 10 -16 6 -3 7 1 4 9 -7 18 -14 21 -14 7z"/>
<path d="M1575 1897 c-11 -7 -21 -12 -22 -13 -1 0 2 -17 8 -38 8 -27 15 -36
26 -32 8 3 17 6 19 6 3 0 2 5 -1 10 -4 6 -3 16 2 23 12 16 11 50 -2 53 -5 2
-19 -3 -30 -9z"/>
<path d="M312 1784 c5 -19 2 -21 -33 -19 -22 1 -39 -2 -39 -7 0 -4 -11 -1 -25
8 -15 10 -25 12 -25 5 0 -6 5 -11 10 -11 6 0 10 -8 9 -17 0 -11 -3 -13 -6 -5
-2 6 -9 10 -14 6 -5 -3 -9 0 -9 7 0 7 -3 9 -6 6 -4 -4 -1 -14 7 -23 21 -26 18
-62 -5 -68 -12 -3 -25 -1 -30 4 -16 16 -26 12 -26 -10 0 -14 -5 -18 -17 -13
-11 4 -14 3 -9 -5 10 -17 -9 -15 -23 2 -17 20 -49 26 -55 10 -3 -8 0 -11 10
-7 17 6 17 3 4 -33 -9 -23 -8 -29 7 -38 26 -15 139 -18 124 -3 -6 6 -11 16
-11 22 1 5 10 -1 21 -14 l20 -24 6 21 c3 12 11 22 18 22 7 0 19 7 26 16 11 14
10 16 -6 13 -11 -2 -26 0 -34 5 -8 5 -16 4 -22 -5 -6 -11 -11 -11 -20 -2 -7 7
-10 15 -7 19 10 10 78 23 73 13 -3 -4 9 -16 27 -25 31 -16 31 -17 12 -31 -18
-15 -18 -15 8 -11 32 6 47 -18 22 -37 -26 -18 2 -30 33 -14 20 11 26 11 33 0
4 -8 13 -10 19 -7 15 9 14 -7 -1 -22 -6 -6 -9 -15 -5 -18 4 -4 16 5 28 19 11
15 25 27 31 27 6 0 4 -8 -4 -17 -9 -10 -16 -31 -16 -46 1 -30 -12 -49 -19 -29
-3 6 -9 12 -15 12 -6 0 -8 -6 -5 -14 3 -8 -2 -17 -11 -21 -9 -3 -18 -2 -20 3
-2 6 -12 8 -22 5 -11 -3 -20 0 -20 6 0 6 -4 11 -9 11 -5 0 -4 -14 2 -30 6 -17
17 -28 23 -26 6 2 11 -3 11 -11 0 -11 -8 -13 -29 -9 -26 5 -27 4 -18 -14 8
-14 5 -27 -11 -54 -19 -33 -19 -37 -5 -52 9 -8 16 -12 16 -8 0 4 6 -1 14 -12
14 -18 15 -18 12 6 -1 14 -6 32 -10 39 -13 20 -1 23 30 6 39 -20 47 -19 34 5
-6 11 -14 18 -18 16 -14 -9 -35 12 -29 28 5 12 12 14 30 7 16 -6 28 -6 36 2
15 15 24 3 23 -30 0 -16 -1 -56 -1 -90 0 -58 -2 -63 -25 -69 -31 -8 -40 -32
-37 -109 4 -117 5 -119 39 -153 36 -36 50 -40 58 -17 6 14 8 13 19 -2 10 -14
9 -20 -6 -37 -11 -11 -19 -25 -19 -32 0 -7 -5 -14 -11 -16 -6 -2 -1 -15 11
-31 12 -15 25 -25 30 -22 5 3 11 1 15 -5 11 -19 22 -10 29 22 4 21 2 34 -6 39
-10 6 -10 11 -1 20 6 6 10 17 8 23 -2 6 -6 23 -9 38 -3 15 -13 34 -22 43 -15
15 -15 20 1 70 10 33 23 55 31 55 9 0 14 12 14 35 0 19 4 44 9 57 5 13 12 35
15 49 8 36 52 56 76 34 15 -14 18 -14 23 -1 3 8 -1 17 -10 20 -8 4 -13 13 -9
21 3 8 1 17 -4 20 -6 4 -10 15 -10 27 0 11 -15 52 -34 91 -28 60 -33 81 -30
126 2 30 6 56 9 59 3 3 -1 12 -8 20 -6 9 -7 13 -2 10 6 -3 11 8 12 25 l2 32
-18 -25 -19 -24 -4 28 -3 28 -27 -22 c-16 -12 -28 -27 -28 -33 0 -7 10 -1 21
13 l20 25 -12 -25 c-13 -27 -34 -49 -65 -66 -17 -10 -20 -9 -22 9 0 12 6 29
14 38 19 21 3 34 -37 31 -23 -2 -26 2 -25 26 1 20 6 29 20 30 29 2 45 22 18
22 -12 0 -22 4 -22 9 0 5 -9 11 -21 14 -12 3 -18 10 -14 16 3 6 -2 19 -11 29
-17 16 -17 16 -12 -4z m42 -152 c2 -4 1 -14 -3 -21 -11 -18 -45 -10 -49 12 -3
12 3 17 22 17 14 0 27 -4 30 -8z m96 -149 c0 -5 -5 -15 -10 -23 -7 -12 -9 -10
-7 8 1 19 17 33 17 15z m-40 -113 c0 -5 -4 -10 -10 -10 -5 0 -10 5 -10 10 0 6
5 10 10 10 6 0 10 -4 10 -10z m-2 -463 c8 -10 9 -17 3 -21 -20 -13 -36 39 -31
104 2 30 4 28 9 -16 3 -28 12 -58 19 -67z m49 -112 c0 -8 -4 -12 -9 -9 -4 3
-8 0 -8 -7 0 -7 -3 -9 -6 -6 -4 4 -1 13 6 22 15 19 17 19 17 0z"/>
<path d="M1440 1790 c0 -5 7 -10 15 -10 8 0 15 5 15 10 0 6 -7 10 -15 10 -8 0
-15 -4 -15 -10z"/>
<path d="M786 1773 c-6 -14 -5 -15 5 -6 7 7 10 15 7 18 -3 3 -9 -2 -12 -12z"/>
<path d="M112 1773 c-6 -3 -10 -9 -6 -14 3 -5 -2 -12 -10 -15 -9 -3 -16 -13
-16 -22 0 -13 6 -10 26 10 26 26 30 49 6 41z"/>
<path d="M410 1755 c-11 -13 -10 -14 4 -9 9 3 16 10 16 15 0 13 -6 11 -20 -6z"/>
<path d="M845 1761 c-3 -5 -18 -12 -34 -16 -17 -3 -31 -14 -34 -25 -4 -16 8
-25 59 -51 53 -25 73 -30 109 -26 25 3 45 2 45 -2 0 -11 81 -8 99 3 10 6 12 5
7 -2 -9 -15 19 -5 84 30 34 18 46 30 48 51 2 19 -1 27 -12 27 -19 0 -21 -16
-3 -23 10 -4 10 -7 0 -18 -10 -10 -13 -10 -13 -1 0 7 -9 22 -19 33 -21 23 -36
11 -26 -20 5 -16 2 -18 -14 -14 -12 3 -19 9 -16 13 3 4 -2 13 -9 19 -10 9 -16
9 -21 1 -5 -8 -11 -8 -21 1 -8 6 -17 9 -21 6 -3 -4 -12 -2 -19 4 -8 7 -14 7
-19 -1 -9 -15 -41 -12 -55 5 -14 17 -34 10 -23 -8 3 -7 -2 -4 -13 5 -15 13
-23 15 -31 7 -8 -8 -13 -8 -17 0 -9 13 -23 14 -31 2z"/>
<path d="M10 1750 c19 -13 30 -13 30 0 0 6 -10 10 -22 10 -19 0 -20 -2 -8 -10z"/>
<path d="M1536 1744 c-19 -18 -21 -45 -4 -62 15 -15 38 -16 38 -2 0 6 -7 10
-16 10 -14 0 -14 2 -3 16 14 17 20 54 8 54 -4 0 -15 -7 -23 -16z"/>
<path d="M1905 1750 c4 -6 11 -8 16 -5 14 9 11 15 -7 15 -8 0 -12 -5 -9 -10z"/>
<path d="M431 1713 c-1 -14 -7 -23 -16 -23 -8 0 -15 -4 -15 -9 0 -5 7 -11 15
-15 9 -3 15 1 15 11 0 12 3 13 14 4 16 -13 24 -5 31 29 2 13 -2 20 -11 20 -8
0 -14 -8 -15 -17 0 -15 -2 -15 -9 2 -8 19 -9 19 -9 -2z"/>
<path d="M1885 1707 c-4 -10 -5 -21 -1 -24 10 -10 18 4 13 24 -4 17 -4 17 -12
0z"/>
<path d="M1723 1667 c3 -21 8 -42 12 -45 9 -9 24 19 18 33 -2 8 5 12 19 11 14
-1 24 5 26 17 2 9 -1 17 -7 17 -6 0 -11 -4 -11 -10 0 -5 -4 -10 -10 -10 -5 0
-10 6 -10 13 0 7 -9 13 -21 13 -19 0 -20 -5 -16 -39z"/>
<path d="M1610 1690 c-8 -5 -12 -12 -9 -15 4 -3 12 1 19 10 14 17 11 19 -10 5z"/>
<path d="M1650 1659 c0 -5 5 -7 10 -4 6 3 10 8 10 11 0 2 -4 4 -10 4 -5 0 -10
-5 -10 -11z"/>
<path d="M1568 1643 c7 -3 16 -2 19 1 4 3 -2 6 -13 5 -11 0 -14 -3 -6 -6z"/>
<path d="M1848 1634 c-2 -5 -4 -18 -4 -28 1 -25 26 -34 26 -9 0 22 -16 48 -22
37z"/>
<path d="M1803 1620 c-13 -5 -23 -12 -23 -14 0 -3 7 -2 17 1 11 4 14 3 9 -5
-4 -7 -1 -12 8 -12 9 0 16 9 16 20 0 11 -1 20 -2 19 -2 0 -13 -4 -25 -9z"/>
<path d="M1985 1571 c-5 -17 -31 -27 -93 -35 -48 -6 -54 -46 -6 -46 14 0 24
-6 24 -14 0 -8 7 -17 16 -20 11 -4 20 5 32 32 10 22 23 37 30 34 8 -2 12 8 12
32 0 40 -5 46 -15 17z"/>
<path d="M1668 1555 c9 -13 19 -19 21 -13 2 6 7 4 12 -3 7 -11 9 -11 9 -1 0
18 -21 37 -42 38 -16 2 -16 0 0 -21z"/>
<path d="M1720 1566 c0 -2 7 -7 16 -10 8 -3 12 -2 9 4 -6 10 -25 14 -25 6z"/>
<path d="M5 1550 c-3 -5 3 -10 15 -10 12 0 18 5 15 10 -3 6 -10 10 -15 10 -5
0 -12 -4 -15 -10z"/>
<path d="M205 1549 c-4 -6 -5 -12 -2 -15 2 -3 7 2 10 11 7 17 1 20 -8 4z"/>
<path d="M88 1531 c-7 -12 -20 -21 -28 -21 -9 0 -24 -6 -34 -13 -19 -14 -33
-77 -17 -77 6 0 11 6 11 14 0 26 24 37 53 23 15 -6 27 -15 27 -18 0 -3 11 -4
25 -1 15 2 25 0 25 -7 0 -6 5 -11 10 -11 7 0 7 6 0 20 -6 10 -9 23 -9 27 3 14
-18 58 -34 72 -13 10 -18 9 -29 -8z m17 -51 c3 -5 2 -10 -4 -10 -5 0 -13 5
-16 10 -3 6 -2 10 4 10 5 0 13 -4 16 -10z"/>
<path d="M1806 1525 c-4 -10 1 -15 16 -15 17 0 18 2 8 15 -7 8 -14 15 -15 15
-2 0 -5 -7 -9 -15z"/>
<path d="M246 1494 c-4 -9 -9 -14 -13 -10 -13 13 -33 -32 -25 -55 6 -16 4 -27
-10 -41 -20 -20 -24 -49 -6 -45 20 4 34 19 36 41 0 11 6 22 12 24 5 2 10 12
10 23 0 10 5 19 11 19 5 0 7 5 4 10 -3 6 -1 10 4 10 6 0 11 4 11 10 0 5 -7 7
-15 4 -11 -5 -13 -2 -9 10 3 9 4 16 1 16 -3 0 -8 -7 -11 -16z m-15 -55 c-9
-22 -10 -22 -10 -3 -1 11 2 24 6 27 12 12 14 0 4 -24z"/>
<path d="M294 1488 c-9 -14 -2 -16 26 -8 25 6 25 6 3 12 -13 3 -26 2 -29 -4z"/>
<path d="M1780 1470 c0 -5 5 -10 11 -10 5 0 7 5 4 10 -3 6 -8 10 -11 10 -2 0
-4 -4 -4 -10z"/>
<path d="M1770 1440 c0 -5 5 -10 11 -10 5 0 7 5 4 10 -3 6 -8 10 -11 10 -2 0
-4 -4 -4 -10z"/>
<path d="M25 1409 c-5 -7 -4 -10 2 -6 13 8 49 -30 39 -40 -4 -4 -11 -2 -15 6
-7 11 -12 11 -30 0 -22 -14 -28 -29 -12 -29 6 0 13 5 16 10 3 6 17 7 31 4 22
-6 24 -3 24 26 0 23 -4 31 -14 27 -7 -3 -18 -1 -24 5 -6 6 -12 6 -17 -3z"/>
<path d="M1740 1381 c0 -6 -6 -8 -13 -5 -8 3 -13 -5 -15 -21 -2 -26 22 -36 31
-12 4 10 6 10 6 0 1 -7 5 -13 10 -13 14 0 8 53 -7 58 -6 2 -12 -1 -12 -7z"/>
<path d="M1791 1374 c0 -11 3 -14 6 -6 3 7 2 16 -1 19 -3 4 -6 -2 -5 -13z"/>
<path d="M243 1340 c-1 -23 2 -38 8 -35 5 4 9 12 9 20 0 7 6 16 13 18 10 4 10
6 0 6 -7 1 -13 8 -13 16 0 8 -4 15 -8 15 -4 0 -8 -18 -9 -40z"/>
<path d="M648 1316 c-4 -39 0 -56 14 -56 6 0 8 6 5 14 -3 8 5 19 18 26 14 7
22 17 19 22 -3 4 -10 6 -15 3 -5 -4 -12 1 -15 9 -10 26 -22 18 -26 -18z"/>
<path d="M40 1331 c0 -6 -10 -8 -22 -6 -16 3 -19 2 -10 -7 8 -8 8 -17 1 -30
-7 -14 -6 -20 6 -24 22 -9 30 3 15 21 -15 17 -7 19 21 5 12 -7 19 -7 19 -1 0
6 7 8 15 5 8 -4 15 -1 15 5 0 6 -4 11 -10 11 -5 0 -10 8 -10 18 0 14 -2 15
-10 2 -6 -10 -10 -11 -10 -2 0 6 -4 12 -10 12 -5 0 -10 -4 -10 -9z"/>
<path d="M125 1330 c3 -5 11 -10 16 -10 6 0 7 5 4 10 -3 6 -11 10 -16 10 -6 0
-7 -4 -4 -10z"/>
<path d="M1790 1320 c0 -19 -23 -43 -33 -34 -3 3 -8 -4 -12 -15 -3 -12 -11
-21 -16 -21 -6 0 -7 -4 -4 -10 3 -5 11 -10 17 -10 6 0 8 3 5 7 -4 3 5 12 20
20 29 15 48 7 20 -8 -9 -6 -15 -14 -12 -20 4 -5 1 -9 -6 -9 -8 0 -9 -3 0 -14
8 -10 8 -16 -3 -25 -17 -14 -31 2 -20 22 4 6 3 8 -1 4 -5 -4 -17 7 -27 25 -10
19 -17 26 -18 16 0 -9 -6 -19 -12 -21 -10 -4 -10 -7 0 -15 10 -7 9 -12 -4 -23
-15 -12 -17 -12 -12 1 7 21 -10 50 -26 44 -7 -3 -19 2 -26 11 -14 17 -30 20
-30 5 0 -5 7 -10 16 -10 10 0 14 -6 10 -15 -3 -10 1 -15 12 -16 14 0 14 -2 -3
-9 -19 -7 -18 -8 6 -15 21 -5 28 -14 33 -46 4 -26 11 -39 22 -39 13 0 15 9 12
41 -3 31 -1 37 8 25 9 -12 18 -13 48 -5 21 6 40 8 43 5 9 -8 35 23 28 33 -3 6
4 15 15 21 13 7 20 7 20 0 0 -5 -8 -10 -17 -10 -15 0 -16 -2 -3 -10 11 -7 19
-4 31 12 l17 21 11 -22 c7 -12 9 -27 5 -34 -3 -6 5 1 20 17 14 16 23 33 20 37
-3 5 1 9 9 9 8 0 18 7 21 16 4 10 2 13 -7 7 -28 -17 -47 -13 -47 11 0 13 -7
27 -16 30 -9 3 -12 11 -8 18 5 8 1 8 -10 -1 -15 -13 -19 -13 -27 0 -7 11 -9 9
-9 -8 0 -27 -12 -30 -30 -8 -11 13 -10 14 4 9 9 -3 16 -2 16 4 0 5 -11 12 -25
14 -19 4 -25 1 -25 -12z m-100 -180 c0 -5 -2 -10 -4 -10 -3 0 -8 5 -11 10 -3
6 -1 10 4 10 6 0 11 -4 11 -10z"/>
<path d="M1717 1303 c3 -7 6 -13 8 -13 1 0 7 6 13 13 8 10 6 13 -7 13 -11 0
-17 -6 -14 -13z"/>
<path d="M1613 1276 c9 -7 17 -18 17 -25 0 -6 4 -11 9 -11 4 0 6 11 3 25 -3
18 -11 25 -26 25 -20 -1 -20 -2 -3 -14z"/>
<path d="M1650 1281 c0 -22 13 -39 26 -34 10 4 11 10 3 24 -10 20 -29 26 -29
10z"/>
<path d="M43 1256 c-9 -16 -7 -23 11 -36 22 -18 86 -25 86 -11 0 5 -7 14 -15
21 -8 7 -15 9 -15 5 0 -4 -7 -2 -15 5 -8 6 -18 9 -24 6 -5 -4 -11 2 -13 11 -3
17 -5 16 -15 -1z"/>
<path d="M1971 1226 c-13 -16 -6 -42 15 -50 11 -4 12 -2 1 16 -9 16 -9 22 1
25 14 5 17 23 3 23 -5 0 -14 -6 -20 -14z"/>
<path d="M160 1190 c0 -5 5 -10 10 -10 6 0 10 5 10 10 0 6 -4 10 -10 10 -5 0
-10 -4 -10 -10z"/>
<path d="M895 1169 c-16 -5 -61 -9 -100 -8 -57 2 -77 -2 -108 -20 -49 -30 -61
-52 -45 -87 11 -22 10 -28 -6 -40 -18 -13 -18 -14 5 -23 13 -5 32 -12 42 -15
23 -7 22 -22 -3 -29 -11 -3 -20 -10 -20 -15 0 -7 11 -5 28 4 36 19 93 19 86 0
-10 -25 75 -35 121 -14 33 15 42 5 25 -28 -12 -21 -12 -27 0 -34 11 -7 10 -11
-3 -25 -10 -9 -17 -21 -17 -26 0 -5 -9 -9 -20 -9 -11 0 -20 -3 -20 -8 0 -4
-23 -22 -51 -41 -49 -32 -53 -33 -89 -21 -22 7 -53 10 -74 6 -30 -6 -36 -11
-36 -32 0 -21 -4 -25 -22 -22 -13 2 -22 9 -20 16 1 8 -2 11 -7 8 -5 -3 -8 -18
-6 -32 2 -18 -1 -22 -8 -15 -6 6 -14 11 -17 11 -11 0 -11 -78 -1 -117 16 -63
22 -143 10 -143 -5 0 -8 -4 -5 -9 3 -5 -1 -11 -9 -15 -18 -6 -19 10 -16 130 2
45 -1 84 -6 87 -13 8 -36 -41 -27 -55 4 -7 2 -8 -4 -4 -7 4 -12 1 -12 -7 0
-23 -27 -70 -32 -56 -5 15 -68 -84 -68 -106 0 -8 -4 -15 -9 -15 -5 0 -7 9 -4
20 10 40 -13 18 -63 -58 -47 -71 -69 -111 -104 -184 -7 -15 -22 -30 -32 -34
-10 -3 -16 -9 -13 -13 11 -18 -20 -61 -45 -62 -14 0 -19 -3 -12 -6 6 -2 10 -9
6 -14 -3 -5 249 -9 632 -9 l636 0 -4 25 c-3 14 -1 25 3 25 5 0 7 14 5 30 -2
17 1 30 5 30 5 0 9 -6 9 -14 0 -8 4 -17 9 -20 13 -8 2 58 -20 122 -22 64 -22
65 -9 57 11 -7 14 57 4 68 -9 9 -74 -46 -74 -63 0 -27 -57 -135 -83 -157 -33
-28 -66 -45 -78 -41 -11 4 90 137 130 172 11 11 21 23 21 27 0 8 -31 -15 -64
-47 -22 -21 -70 -25 -118 -10 -26 7 -49 12 -52 9 -6 -7 -96 47 -96 58 0 5 -6
9 -12 9 -18 0 -90 78 -79 85 5 3 17 -2 25 -11 9 -8 16 -11 16 -6 0 5 17 12 39
16 54 8 69 29 36 50 -15 10 -25 24 -23 33 3 17 10 19 98 32 48 7 37 17 -13 11
-10 -1 -24 3 -30 8 -7 6 -29 13 -49 17 -38 7 -56 31 -38 49 8 8 13 7 19 -3 6
-10 10 -10 16 -2 5 9 10 9 21 0 11 -9 17 -9 28 0 11 9 20 10 35 1 14 -7 27 -7
39 -1 10 5 26 9 36 8 11 -1 20 3 22 8 2 6 -11 10 -28 9 -65 -1 -80 20 -23 30
23 5 43 18 61 42 29 37 27 52 -4 35 -27 -14 -83 -3 -145 29 -57 29 -71 62 -29
68 14 2 27 14 34 30 6 15 16 39 24 54 8 14 14 47 14 72 0 25 5 68 11 97 10 45
9 53 -4 61 -9 5 -14 14 -11 21 4 10 -80 59 -96 56 -3 0 -18 -5 -35 -10z m-77
-75 c39 -11 24 -24 -28 -24 -46 0 -60 7 -43 23 8 9 41 9 71 1z m-92 -561 c4
-16 13 -32 21 -38 12 -10 22 -90 11 -100 -3 -3 -14 3 -26 13 -16 15 -23 34
-26 85 -6 68 7 92 20 40z m-466 -463 c0 -5 -2 -10 -4 -10 -3 0 -8 5 -11 10 -3
6 -1 10 4 10 6 0 11 -4 11 -10z"/>
<path d="M0 1150 c0 -5 5 -10 11 -10 5 0 7 5 4 10 -3 6 -8 10 -11 10 -2 0 -4
-4 -4 -10z"/>
<path d="M606 1151 c-4 -7 -5 -15 -2 -18 9 -9 19 4 14 18 -4 11 -6 11 -12 0z"/>
<path d="M50 1140 c0 -5 5 -10 11 -10 8 0 8 -5 -1 -15 -7 -8 -9 -15 -4 -15 5
0 -2 -9 -16 -20 l-25 -19 28 -10 c38 -15 42 -14 26 5 -11 14 -10 15 6 12 26
-4 31 26 11 57 -17 25 -36 33 -36 15z"/>
<path d="M136 1134 c-6 -17 47 -88 58 -77 3 4 1 12 -5 20 -9 9 -8 13 0 13 6 0
11 14 11 30 0 26 -3 30 -29 30 -17 0 -31 -6 -35 -16z"/>
<path d="M1168 1132 c-32 -9 -60 -22 -63 -30 -6 -17 24 -102 36 -102 4 0 14
-12 21 -27 17 -36 99 -65 149 -53 l34 7 -28 8 c-21 6 -27 12 -24 26 3 10 2 18
-2 17 -30 -4 -28 6 4 18 25 9 55 12 82 8 34 -5 43 -3 43 9 0 19 -59 47 -119
56 l-46 7 30 16 c17 8 42 18 58 22 42 10 32 23 -25 30 -70 8 -83 7 -150 -12z"/>
<path d="M1714 1129 c-3 -5 6 -9 20 -9 31 0 34 6 6 13 -11 3 -23 1 -26 -4z"/>
<path d="M1958 1123 c-16 -19 -13 -42 6 -56 7 -4 3 -9 -11 -13 -23 -6 -31 -38
-13 -49 6 -3 10 -1 10 4 0 6 3 10 8 10 34 -6 42 2 42 41 0 29 -4 40 -15 40 -8
0 -15 5 -15 10 0 6 7 10 16 10 8 0 12 5 9 10 -9 15 -20 12 -37 -7z"/>
<path d="M245 1120 c3 -6 -1 -7 -9 -4 -17 6 -21 -4 -8 -21 8 -12 77 -13 88 -2
4 4 -1 14 -12 22 -21 16 -69 20 -59 5z"/>
<path d="M1810 1105 c0 -9 9 -15 21 -15 18 0 19 2 9 15 -7 8 -16 15 -21 15 -5
0 -9 -7 -9 -15z"/>
<path d="M0 1096 c0 -9 30 -14 35 -6 4 6 -3 10 -14 10 -12 0 -21 -2 -21 -4z"/>
<path d="M1775 1080 c3 -5 8 -10 11 -10 2 0 4 5 4 10 0 6 -5 10 -11 10 -5 0
-7 -4 -4 -10z"/>
<path d="M250 1050 c0 -5 5 -10 11 -10 5 0 7 5 4 10 -3 6 -8 10 -11 10 -2 0
-4 -4 -4 -10z"/>
<path d="M1675 999 c-8 -35 7 -52 39 -45 10 3 29 1 42 -4 18 -7 24 -6 24 4 0
8 -14 17 -30 21 -21 5 -32 14 -36 31 -9 34 -31 30 -39 -7z"/>
<path d="M1873 1023 c-21 -8 -15 -27 13 -40 22 -10 25 -10 20 3 -3 9 -6 22 -6
30 0 14 -6 16 -27 7z"/>
<path d="M117 1009 c-9 -6 -22 -7 -27 -4 -6 3 -10 1 -10 -4 0 -6 6 -11 14 -11
8 0 16 -4 18 -8 2 -4 13 -3 26 4 18 9 20 13 10 22 -9 7 -19 7 -31 1z"/>
<path d="M1541 1004 c0 -11 3 -14 6 -6 3 7 2 16 -1 19 -3 4 -6 -2 -5 -13z"/>
<path d="M1735 1000 c3 -5 11 -10 16 -10 6 0 7 5 4 10 -3 6 -11 10 -16 10 -6
0 -7 -4 -4 -10z"/>
<path d="M1790 1001 c0 -5 11 -11 25 -13 17 -4 25 -1 25 8 0 8 -11 14 -25 14
-14 0 -25 -4 -25 -9z"/>
<path d="M150 964 c0 -8 5 -12 10 -9 6 3 10 10 10 16 0 5 -4 9 -10 9 -5 0 -10
-7 -10 -16z"/>
<path d="M45 939 c-4 -6 -13 -8 -20 -5 -7 2 -16 -2 -19 -10 -9 -24 -7 -54 4
-54 6 0 10 -5 10 -11 0 -5 -5 -7 -11 -4 -11 8 -8 -40 6 -82 8 -24 25 -32 25
-12 0 8 5 7 15 -1 9 -7 18 -10 21 -7 10 9 -6 27 -24 27 -9 0 -23 4 -31 9 -9 6
0 8 28 7 39 -2 43 0 57 32 17 41 12 52 -25 52 -20 0 -30 6 -34 20 -5 19 4 25
27 21 5 -1 4 5 -4 13 -15 19 -17 19 -25 5z m-7 -64 c-3 -3 -9 2 -12 12 -6 14
-5 15 5 6 7 -7 10 -15 7 -18z"/>
<path d="M250 940 c0 -5 5 -10 11 -10 5 0 7 5 4 10 -3 6 -8 10 -11 10 -2 0 -4
-4 -4 -10z"/>
<path d="M1675 930 c-3 -5 -1 -10 4 -10 6 0 11 5 11 10 0 6 -2 10 -4 10 -3 0
-8 -4 -11 -10z"/>
<path d="M1790 930 c0 -5 5 -10 11 -10 5 0 7 5 4 10 -3 6 -8 10 -11 10 -2 0
-4 -4 -4 -10z"/>
<path d="M1950 931 c0 -6 -7 -8 -16 -4 -12 4 -15 1 -13 -12 2 -10 9 -20 14
-22 14 -4 37 34 25 42 -6 3 -10 2 -10 -4z"/>
<path d="M1825 920 c-3 -5 -1 -10 4 -10 6 0 11 5 11 10 0 6 -2 10 -4 10 -3 0
-8 -4 -11 -10z"/>
<path d="M236 904 c-12 -8 -22 -10 -26 -5 -3 6 -11 6 -20 1 -10 -7 -11 -10 -2
-10 25 0 11 -18 -34 -40 -42 -22 -44 -25 -27 -38 10 -7 17 -20 15 -28 -5 -22
35 -17 41 6 3 11 17 24 31 30 18 7 24 14 19 26 -5 13 -2 16 9 11 14 -5 58 28
47 36 -2 1 -11 8 -19 14 -11 9 -20 8 -34 -3z"/>
<path d="M330 896 c0 -14 -12 -20 -32 -17 -5 0 -8 -6 -8 -15 0 -8 -4 -12 -10
-9 -12 7 -12 -21 -1 -49 5 -13 10 -16 15 -8 3 6 14 8 22 5 13 -5 14 -3 6 13
-9 18 -7 20 20 22 43 3 54 13 32 26 -11 6 -19 17 -19 25 0 8 -6 16 -12 19 -7
2 -13 -3 -13 -12z m7 -42 c-3 -3 -12 -4 -19 -1 -8 3 -5 6 6 6 11 1 17 -2 13
-5z"/>
<path d="M1770 890 c0 -5 5 -10 10 -10 6 0 10 5 10 10 0 6 -4 10 -10 10 -5 0
-10 -4 -10 -10z"/>
<path d="M1970 880 c0 -5 5 -10 10 -10 6 0 10 5 10 10 0 6 -4 10 -10 10 -5 0
-10 -4 -10 -10z"/>
<path d="M1808 875 c-3 -3 -21 -6 -41 -7 -20 -1 -38 -7 -41 -15 -3 -7 -11 -13
-18 -13 -10 0 -10 2 0 9 11 6 10 9 -5 13 -10 2 -25 2 -35 0 -14 -3 -13 -6 5
-25 17 -18 26 -20 39 -13 12 8 21 7 30 -2 6 -6 24 -12 40 -12 27 0 82 -43 70
-55 -4 -3 1 -3 11 1 23 8 22 25 -3 31 -20 5 -25 15 -13 26 3 4 12 2 20 -5 11
-8 17 -8 26 2 9 10 9 11 0 6 -7 -4 -13 -2 -13 3 0 6 7 11 15 11 12 0 13 4 6
19 -12 22 -63 18 -54 -5 4 -10 0 -12 -12 -8 -10 4 -15 14 -12 25 5 18 -3 25
-15 14z"/>
<path d="M1935 860 c-3 -5 -1 -10 6 -10 7 0 8 -4 2 -12 -19 -26 -11 -56 23
-89 l34 -33 0 60 c0 55 -2 61 -29 77 -19 11 -32 14 -36 7z"/>
<path d="M347 800 c6 -23 16 -25 32 -7 13 16 5 27 -20 27 -12 0 -16 -6 -12
-20z"/>
<path d="M216 795 c4 -9 1 -15 -7 -15 -9 0 -10 -3 -3 -10 6 -6 18 -8 27 -4 13
5 14 10 6 25 -12 22 -31 26 -23 4z"/>
<path d="M1200 784 c0 -10 11 -34 25 -55 17 -23 27 -52 28 -80 l2 -44 -52 -8
c-57 -9 -73 -25 -23 -21 17 1 32 -2 35 -6 8 -13 -6 -40 -21 -40 -8 0 -14 -7
-14 -16 0 -12 11 -9 54 15 44 26 58 30 80 22 29 -11 46 1 71 49 25 48 -3 99
-86 157 -59 41 -99 52 -99 27z"/>
<path d="M1644 783 c-11 -11 -12 -18 -4 -23 6 -4 10 -12 8 -19 -2 -7 4 -18 13
-23 12 -8 22 -4 43 17 16 16 34 25 45 22 14 -3 17 0 14 14 -3 11 -8 19 -12 20
-54 8 -94 5 -107 -8z"/>
<path d="M1895 789 c-8 -12 43 -89 58 -89 6 0 3 8 -6 18 -10 10 -17 26 -17 34
0 39 -21 61 -35 37z"/>
<path d="M1786 767 c22 -31 30 -33 38 -11 8 21 8 21 -28 30 l-29 7 19 -26z"/>
<path d="M152 729 l-33 -32 -21 22 c-16 18 -22 20 -29 9 -14 -22 -10 -45 9
-53 16 -6 16 -7 -1 -19 -14 -11 -15 -19 -8 -38 11 -30 40 -44 55 -27 8 8 8 13
-1 16 -7 3 -13 9 -13 15 0 7 5 6 14 -1 8 -7 16 -8 18 -4 3 4 3 3 2 -4 -2 -6 3
-16 10 -22 10 -9 15 -7 19 9 3 11 1 20 -5 20 -6 0 -7 7 -2 18 4 9 8 28 9 42 2
14 6 33 10 42 14 35 -1 38 -33 7z m12 -44 c3 -8 1 -15 -4 -15 -6 0 -10 7 -10
15 0 8 2 15 4 15 2 0 6 -7 10 -15z"/>
<path d="M349 753 c-11 -3 -15 -12 -11 -28 5 -28 15 -30 60 -14 27 9 30 14 22
30 -10 18 -34 22 -71 12z"/>
<path d="M198 694 c-2 -25 1 -49 7 -52 10 -6 15 -7 68 -10 18 -1 27 -8 27 -19
0 -30 11 -9 19 36 1 3 8 -4 16 -15 15 -18 16 -18 13 5 -3 28 -48 42 -48 15 0
-11 -5 -14 -16 -10 -9 3 -18 6 -20 6 -2 0 -4 7 -4 15 0 8 5 15 11 15 5 0 7 5
3 11 -3 6 -9 7 -13 3 -8 -11 -42 -14 -36 -4 3 5 -1 11 -7 14 -11 5 -11 7 0 12
6 3 10 10 6 15 -12 20 -22 6 -26 -37z"/>
<path d="M250 720 c0 -5 7 -10 16 -10 8 0 12 5 9 10 -3 6 -10 10 -16 10 -5 0
-9 -4 -9 -10z"/>
<path d="M1898 705 c-3 -3 -23 -6 -44 -7 -39 -1 -39 -2 -12 -13 16 -6 44 -9
63 -7 29 3 33 7 24 18 -12 15 -22 18 -31 9z"/>
<path d="M1734 689 c-4 -7 -3 -9 4 -5 5 3 13 0 15 -6 4 -9 6 -10 6 -1 1 17
-16 25 -25 12z"/>
<path d="M360 681 c0 -17 18 -21 24 -6 3 9 0 15 -9 15 -8 0 -15 -4 -15 -9z"/>
<path d="M35 660 c-3 -5 -12 -7 -20 -3 -19 7 -19 -17 -1 -43 16 -20 18 -18 29
34 5 23 2 28 -8 12z"/>
<path d="M1690 662 c0 -6 5 -14 10 -17 6 -3 10 -11 10 -16 0 -6 -4 -7 -10 -4
-5 3 -18 1 -27 -4 -15 -9 -12 -11 17 -11 31 -1 33 -2 18 -14 -22 -16 -23 -26
-2 -26 8 0 12 -5 9 -10 -4 -6 -11 -7 -17 -4 -6 4 -9 1 -6 -6 8 -24 28 -23 37
2 9 21 10 21 11 3 2 -17 3 -16 10 5 5 14 8 18 9 9 1 -18 48 -32 57 -17 3 5 1
15 -6 22 -8 11 -8 15 2 18 9 3 9 6 0 12 -7 4 -12 2 -12 -3 0 -6 -7 -11 -15
-11 -22 0 -18 17 5 30 11 6 18 15 15 21 -4 6 -13 5 -25 -1 -25 -14 -30 -13
-30 6 0 8 -5 12 -10 9 -6 -4 -8 -10 -5 -15 3 -5 1 -11 -5 -15 -5 -3 -10 0 -10
8 0 8 -7 20 -15 27 -9 8 -15 9 -15 2z"/>
<path d="M1822 640 c2 -27 3 -27 24 -11 25 18 23 26 -6 34 -17 4 -20 1 -18
-23z"/>
<path d="M343 603 c-13 -2 -23 -11 -23 -19 0 -8 -4 -14 -10 -14 -5 0 -10 4
-10 8 0 5 -18 9 -40 10 -40 2 -45 -3 -34 -32 5 -13 10 -14 20 -5 10 8 17 7 30
-5 11 -12 20 -14 28 -7 14 11 56 3 56 -10 0 -5 8 -1 19 9 18 17 18 17 -1 34
-11 10 -17 22 -13 28 3 5 5 9 3 9 -2 -1 -13 -4 -25 -6z"/>
<path d="M1555 580 c3 -5 8 -10 11 -10 2 0 4 5 4 10 0 6 -5 10 -11 10 -5 0 -7
-4 -4 -10z"/>
<path d="M1915 581 c-3 -6 -1 -11 5 -11 6 0 8 -5 5 -11 -5 -7 -14 -4 -26 7
-18 17 -21 16 -47 -8 -39 -37 -64 -48 -83 -37 -12 6 -19 4 -23 -6 -3 -8 -1
-15 4 -15 5 0 7 -8 4 -17 -5 -16 -4 -16 6 0 11 17 13 17 38 -8 15 -15 33 -24
43 -22 12 3 16 0 12 -10 -5 -12 3 -14 42 -9 50 5 65 17 64 51 0 17 -1 18 -7 3
-5 -13 -11 -15 -22 -8 -19 12 -60 13 -60 2 0 -5 -7 -9 -15 -9 -9 0 -14 5 -12
11 2 6 -3 16 -11 22 -12 9 -6 13 33 19 37 5 51 3 59 -7 6 -8 17 -13 25 -10 7
2 17 -1 21 -8 15 -24 30 1 28 47 -1 39 -3 42 -13 24 -6 -12 -22 -29 -35 -38
-22 -16 -23 -16 -16 3 12 29 12 46 -1 51 -6 2 -14 -1 -18 -6z"/>
<path d="M130 551 c0 -5 7 -11 15 -15 9 -3 15 0 15 9 0 8 -7 15 -15 15 -8 0
-15 -4 -15 -9z"/>
<path d="M110 535 c0 -8 -6 -15 -14 -15 -8 0 -16 -6 -19 -14 -6 -14 10 -36 27
-36 5 0 1 6 -9 14 -18 13 -18 14 3 20 18 6 33 46 17 46 -3 0 -5 -7 -5 -15z"/>
<path d="M0 525 c0 -8 4 -15 10 -15 5 0 7 7 4 15 -4 8 -8 15 -10 15 -2 0 -4
-7 -4 -15z"/>
<path d="M400 520 c0 -5 5 -10 11 -10 5 0 7 5 4 10 -3 6 -8 10 -11 10 -2 0 -4
-4 -4 -10z"/>
<path d="M1145 509 c-4 -5 -13 -8 -21 -5 -7 3 -16 1 -19 -4 -4 -6 4 -10 17
-10 29 0 54 15 40 24 -6 3 -14 1 -17 -5z"/>
<path d="M1340 510 c0 -5 5 -10 10 -10 6 0 10 5 10 10 0 6 -4 10 -10 10 -5 0
-10 -4 -10 -10z"/>
<path d="M1510 502 c0 -5 9 -17 21 -28 30 -27 49 -68 49 -104 0 -45 -14 -37
-34 21 -22 59 -49 65 -52 10 -1 -18 -7 -37 -13 -41 -7 -4 -10 -18 -6 -36 5
-25 4 -25 -9 6 -8 19 -17 43 -20 53 -7 23 -29 22 -51 -2 -16 -19 -16 -21 6
-53 13 -18 34 -44 46 -58 13 -14 23 -28 23 -32 0 -4 8 -9 18 -13 32 -9 80 -89
98 -158 l16 -67 134 0 c74 0 134 1 134 3 0 38 -34 175 -47 190 -18 19 -17 19
7 12 14 -4 22 -4 18 0 -4 4 -22 11 -40 15 -32 8 -32 8 12 9 l44 1 -38 37 c-22
22 -49 38 -64 39 -15 1 -49 2 -77 3 -44 2 -47 3 -25 12 13 6 41 7 61 4 22 -4
40 -2 43 4 4 6 1 9 -7 5 -8 -3 -17 2 -20 10 -4 9 -14 16 -24 16 -15 0 -16 -2
-3 -10 12 -8 11 -10 -7 -10 -26 0 -26 0 -13 34 7 20 6 24 -5 20 -8 -3 -26 6
-40 20 -14 14 -30 26 -34 26 -5 0 -11 6 -14 13 -6 15 -87 61 -87 49z m79 -194
c5 -13 23 -58 40 -100 37 -92 39 -106 8 -55 -13 22 -26 37 -30 35 -8 -4 -57
89 -50 96 3 3 1 12 -6 20 -9 11 -9 15 1 19 23 10 28 7 37 -15z m171 -47 c0 -6
-4 -13 -10 -16 -5 -3 -10 1 -10 9 0 9 5 16 10 16 6 0 10 -4 10 -9z m4 -81 c5
-32 4 -41 -4 -30 -9 14 -15 88 -6 79 2 -2 7 -24 10 -49z"/>
<path d="M1710 490 c0 -5 5 -10 10 -10 6 0 10 5 10 10 0 6 -4 10 -10 10 -5 0
-10 -4 -10 -10z"/>
<path d="M255 480 c-3 -6 1 -7 9 -4 18 7 21 14 7 14 -6 0 -13 -4 -16 -10z"/>
<path d="M0 469 c0 -5 5 -7 10 -4 5 3 10 8 10 11 0 2 -4 4 -10 4 -5 0 -10 -5
-10 -11z"/>
<path d="M25 440 c3 -5 8 -10 11 -10 2 0 4 5 4 10 0 6 -5 10 -11 10 -5 0 -7
-4 -4 -10z"/>
<path d="M266 418 c9 -31 11 -33 29 -18 12 10 13 16 4 26 -19 23 -41 17 -33
-8z"/>
<path d="M221 407 c-8 -10 -9 -17 -1 -22 5 -3 10 -3 10 1 0 3 7 1 15 -6 23
-19 26 -8 6 18 -15 21 -19 22 -30 9z"/>
<path d="M0 398 c0 -18 18 -34 28 -24 3 4 -2 14 -11 23 -16 16 -17 16 -17 1z"/>
<path d="M1966 392 c-2 -4 4 -9 15 -9 10 -1 19 2 19 8 0 11 -27 12 -34 1z"/>
<path d="M124 376 c-13 -10 -23 -11 -31 -4 -9 7 -13 7 -13 0 0 -26 57 -33 72
-9 4 7 11 7 22 -3 9 -7 20 -9 24 -5 4 4 1 10 -6 12 -6 3 -10 9 -6 14 9 14 -40
10 -62 -5z"/>
<path d="M213 358 c-25 -32 -26 -40 -4 -29 11 7 21 18 21 26 0 18 -5 19 -17 3z"/>
<path d="M113 305 c0 -16 24 -28 31 -17 6 10 -6 26 -20 29 -6 1 -11 -4 -11
-12z"/>
<path d="M1890 96 c0 -8 8 -17 18 -19 15 -4 15 -5 -1 -6 -10 0 -17 -7 -14 -13
2 -7 0 -23 -4 -35 -8 -22 -7 -23 51 -23 33 0 60 4 60 9 0 5 -7 22 -15 37 -10
20 -15 23 -15 12 0 -10 -3 -18 -6 -18 -9 0 -34 28 -34 39 0 6 -9 15 -20 21
-16 8 -20 8 -20 -4z"/>
<path d="M90 90 c-8 -5 -12 -11 -9 -14 2 -3 11 -1 19 4 8 5 12 11 9 14 -2 3
-11 1 -19 -4z"/>
<path d="M1370 46 c0 -8 -3 -21 -6 -30 -5 -14 8 -16 107 -14 97 1 104 2 49 7
-44 4 -75 13 -97 29 -36 25 -53 28 -53 8z"/>
</g>
</svg>
